<?xml version="1.0" standalone="no"?>
<!DOCTYPE svg PUBLIC "-//W3C//DTD SVG 20010904//EN" "http://www.w3.org/TR/2001/REC-SVG-20010904/DTD/svg10.dtd">
<svg version="1.0" xmlns="http://www.w3.org/2000/svg"
     width="105.000000pt" height="105.000000pt" viewBox="0 0 105.000000 105.000000"
     preserveAspectRatio="xMidYMid meet">
  <metadata>
    Created by potrace 1.11, written by Peter Selinger 2001-2013
  </metadata>
  <g transform="translate(0.000000,105.000000) scale(0.100000,-0.100000)"
     fill="#000000" stroke="none">
    <path d="M426 910 c-198 -70 -320 -271 -287 -472 23 -142 115 -264 246 -329
67 -32 74 -34 180 -34 98 0 117 3 178 29 l69 28 32 -31 c18 -17 41 -31 51 -31
15 0 11 9 -23 43 l-42 43 46 44 c25 26 61 77 82 119 36 73 37 78 37 186 0 105
-2 114 -34 179 -43 87 -120 164 -207 207 -61 30 -78 34 -168 37 -82 2 -112 -2
-160 -18z m308 -43 c180 -83 275 -290 218 -475 -21 -66 -80 -161 -120 -193
l-26 -20 -86 86 c-49 49 -94 85 -105 85 -14 0 6 -26 74 -94 l94 -94 -24 -15
c-84 -54 -250 -61 -352 -14 -75 34 -162 117 -198 189 -54 106 -55 245 -3 354
33 70 116 154 186 188 100 49 238 50 342 3z"/>
  </g>
</svg>
